<?xml version="1.0" standalone="no"?>
<!DOCTYPE svg PUBLIC "-//W3C//DTD SVG 20010904//EN"
 "http://www.w3.org/TR/2001/REC-SVG-20010904/DTD/svg10.dtd">
<svg version="1.0" xmlns="http://www.w3.org/2000/svg"
 width="1446.000000pt" height="1446.000000pt" viewBox="0 0 1446.000000 1446.000000"
 preserveAspectRatio="xMidYMid meet">
<metadata>
Created by potrace 1.14, written by Peter Selinger 2001-2017
</metadata>
<g transform="translate(0.000000,1446.000000) scale(0.100000,-0.100000)"
fill="#000000" stroke="none">
<path d="M8285 9885 c-19 -41 -51 -110 -71 -152 -49 -105 -104 -225 -104 -228
0 -2 1 -2 68 -6 37 -2 47 2 80 34 68 67 135 64 194 -7 22 -28 34 -33 60 -31
41 3 68 14 68 27 0 6 -12 63 -26 127 -14 63 -28 124 -29 133 -2 10 -6 22 -9
27 -4 6 -12 80 -16 144 0 4 -41 7 -90 7 l-90 0 -35 -75z m127 -134 c0 -9 2
-23 2 -31 1 -8 -4 -20 -10 -27 -15 -15 -54 -13 -55 4 -1 7 -2 19 -3 26 0 6 8
27 19 45 18 30 21 31 32 15 7 -9 14 -24 15 -32z"/>
<path d="M8742 9942 c3 -10 1 -47 -3 -81 -9 -60 -12 -78 -22 -126 -3 -11 -10
-54 -16 -96 -19 -125 -2 -143 139 -142 119 1 113 -2 125 63 8 40 -4 49 -60 49
-30 -1 -59 2 -65 6 -11 7 -10 57 3 112 3 11 9 43 13 70 3 26 8 55 9 63 2 8 6
34 10 58 l7 42 -72 0 c-65 0 -72 -2 -68 -18z"/>
<path d="M9070 9934 c-21 -54 -11 -73 37 -79 38 -4 53 -29 42 -68 -9 -31 -17
-88 -24 -162 -5 -48 -14 -96 -21 -107 -11 -18 60 -29 99 -16 27 10 32 20 42
93 3 22 7 47 10 55 2 8 6 38 10 65 6 49 12 83 22 118 2 10 14 17 28 17 25 0
75 19 75 29 1 3 3 23 6 44 l6 37 -161 0 -161 0 -10 -26z"/>
<path d="M9519 9945 c-1 -8 -2 -18 -3 -22 -4 -18 -19 -110 -22 -133 -1 -14 -8
-54 -14 -90 -14 -77 -20 -159 -13 -176 7 -18 54 -27 145 -28 89 -1 111 10 110
54 -1 44 -9 50 -58 48 -58 -2 -79 16 -61 52 11 21 20 25 59 26 52 0 74 13 80
49 7 37 -6 49 -63 55 -42 4 -53 9 -55 25 -4 30 15 45 60 45 65 0 82 9 93 43
19 65 16 67 -128 67 -107 0 -129 -3 -130 -15z"/>
<path d="M9936 9933 c-5 -24 -27 -154 -42 -248 -3 -16 -7 -37 -9 -45 -2 -8 -7
-35 -10 -60 -4 -24 -8 -48 -11 -51 -7 -12 23 -30 56 -34 46 -6 76 28 85 95 l7
53 19 -24 c10 -13 19 -27 19 -31 0 -10 27 -43 60 -75 21 -19 32 -23 64 -18 62
8 63 17 17 90 -22 36 -41 69 -41 73 0 4 25 31 55 61 30 29 56 62 56 72 1 11 2
25 3 32 4 28 -19 69 -57 102 l-41 35 -112 0 -112 0 -6 -27z m188 -89 c20 -20
20 -44 0 -72 -12 -18 -24 -22 -52 -20 -36 3 -37 4 -35 43 2 22 5 46 8 53 6 17
61 15 79 -4z"/>
<path d="M10415 9928 c-11 -70 -15 -95 -21 -138 -4 -25 -8 -54 -9 -65 -1 -11
-3 -20 -4 -20 -2 0 -5 -20 -7 -45 -3 -24 -9 -65 -14 -90 -11 -55 3 -73 55 -73
52 0 65 19 76 109 10 83 26 144 37 144 4 0 29 -52 57 -116 53 -126 64 -137
138 -136 59 0 65 9 83 127 3 22 12 78 20 125 8 47 17 101 20 120 2 19 7 47 10
63 l6 27 -71 0 -70 0 0 -37 c0 -46 -9 -105 -26 -181 l-8 -33 -21 33 c-12 18
-40 75 -62 125 l-39 93 -72 0 -72 0 -6 -32z"/>
<path d="M11010 9739 c-60 -122 -107 -225 -105 -230 3 -4 28 -7 56 -5 41 2 54
7 74 30 57 66 152 63 206 -5 25 -32 36 -39 58 -35 14 2 33 5 41 5 35 3 41 15
26 57 -7 22 -16 58 -20 79 -8 53 -38 204 -61 303 -5 21 -11 22 -85 22 l-80 0
-110 -221z m186 48 c1 -7 4 -24 7 -39 7 -36 -21 -73 -50 -64 -26 8 -24 41 6
89 22 37 33 40 37 14z"/>
<path d="M11470 9920 c-17 -51 -5 -65 57 -69 23 -2 32 -35 21 -82 -10 -46 -15
-73 -22 -149 -3 -25 -8 -60 -12 -77 -7 -34 0 -41 43 -47 27 -4 71 13 78 31 6
16 9 38 20 127 3 27 8 52 10 55 1 3 6 31 10 61 8 66 18 80 56 80 40 0 69 32
69 75 l0 35 -158 0 -159 0 -13 -40z"/>
<path d="M11919 9958 c-2 -9 -7 -40 -13 -83 -3 -27 -16 -119 -29 -203 -25
-166 -24 -171 30 -176 37 -3 73 13 74 33 0 9 2 25 5 36 2 11 6 36 9 55 2 19 7
46 10 60 3 14 8 45 11 69 2 24 7 47 9 51 3 4 7 42 10 84 l5 76 -60 0 c-33 0
-60 -1 -61 -2z"/>
<path d="M12144 9944 c9 -23 59 -221 72 -283 3 -13 10 -34 16 -45 6 -12 10
-21 9 -21 -2 0 0 -17 4 -38 5 -27 15 -42 34 -51 54 -28 104 -1 143 79 29 59
44 88 146 278 l53 97 -71 0 -70 0 -51 -107 c-28 -60 -58 -125 -66 -147 -11
-26 -18 -34 -23 -25 -14 24 -56 216 -59 267 -1 8 -22 12 -72 12 -61 0 -70 -2
-65 -16z"/>
<path d="M12719 9943 c-1 -33 -10 -78 -19 -103 -11 -31 -21 -96 -24 -159 -2
-26 -5 -52 -9 -57 -3 -5 -8 -28 -12 -51 -5 -36 -3 -43 20 -61 22 -18 38 -20
118 -17 128 4 127 4 131 83 1 9 -6 18 -14 18 -8 1 -19 3 -25 4 -5 1 -26 2 -45
3 -28 2 -36 6 -38 25 -5 34 15 52 57 50 60 -2 78 9 83 47 5 45 -6 55 -63 55
-51 0 -67 16 -49 51 11 20 21 22 79 20 42 -1 79 29 75 62 -1 12 -3 28 -3 35
-1 9 -34 12 -131 12 -117 0 -130 -2 -131 -17z"/>
<path d="M3668 9615 c-2 -2 -75 -6 -163 -9 -88 -3 -191 -8 -230 -11 -38 -3
-106 -7 -150 -10 -44 -2 -111 -7 -150 -10 -38 -3 -92 -8 -120 -10 -27 -2 -50
-4 -50 -5 0 0 -22 -3 -50 -5 -58 -4 -164 -14 -215 -20 -19 -2 -69 -8 -110 -14
-41 -5 -82 -9 -90 -10 -30 -1 -105 -10 -129 -15 -14 -3 -47 -8 -75 -12 -60 -7
-115 -15 -136 -18 -30 -6 -106 -17 -140 -21 -19 -2 -35 -4 -35 -5 0 -2 -26 -7
-75 -14 -25 -4 -115 -21 -200 -37 -85 -17 -166 -33 -180 -35 -225 -40 -702
-178 -945 -275 -16 -7 -35 -13 -41 -14 -6 -2 -27 -10 -45 -18 -19 -9 -63 -28
-99 -42 -81 -33 -155 -75 -206 -116 l-39 -31 55 6 c30 3 91 14 135 25 44 11
96 22 116 25 20 3 42 8 50 10 8 3 25 8 39 10 14 3 59 12 100 20 41 8 89 17
105 20 80 13 213 38 235 42 14 3 32 6 40 6 8 0 38 5 65 10 28 5 68 11 90 13
22 3 56 7 75 11 19 3 46 6 60 8 14 2 43 6 65 9 38 6 87 13 157 22 18 2 59 7
91 10 32 4 67 8 78 10 11 2 55 7 97 10 42 4 84 8 92 10 8 2 51 7 95 11 44 3
96 8 115 10 81 8 150 14 230 19 47 4 108 8 135 10 52 5 187 13 310 20 425 25
1376 24 1780 0 59 -4 154 -10 310 -20 44 -2 98 -7 120 -9 22 -2 74 -7 115 -11
41 -3 89 -8 105 -9 17 -2 64 -7 105 -10 41 -4 82 -9 90 -11 8 -2 44 -6 80 -10
36 -4 76 -8 90 -10 36 -4 110 -15 150 -21 44 -6 82 -11 140 -19 25 -3 56 -8
70 -11 14 -4 39 -8 55 -11 17 -2 68 -11 115 -19 82 -15 124 -22 165 -28 11 -2
38 -7 60 -11 22 -4 47 -9 55 -10 8 -2 51 -11 95 -20 44 -9 88 -19 98 -20 9 -2
20 -6 25 -8 4 -3 23 -8 42 -11 19 -3 53 -11 75 -17 22 -6 58 -14 80 -19 22 -5
56 -14 75 -20 19 -6 43 -13 53 -15 10 -2 32 -9 50 -15 18 -5 77 -24 132 -41
253 -79 593 -231 745 -333 133 -90 259 -230 301 -336 8 -19 14 -69 14 -110 0
-109 -35 -171 -148 -264 -24 -20 -47 -36 -51 -36 -4 0 -16 -9 -28 -20 -12 -11
-34 -26 -50 -32 -29 -13 -43 -34 -29 -43 11 -6 247 72 401 132 181 71 361 165
455 237 101 78 180 192 190 274 3 20 6 46 8 56 9 49 -59 256 -84 256 -5 0 -9
5 -9 10 0 10 -28 44 -85 104 -92 97 -343 253 -547 340 -21 9 -53 22 -70 30
-142 62 -704 229 -912 270 -12 3 -66 14 -121 26 -55 12 -111 24 -125 26 -14 3
-32 7 -41 10 -9 2 -32 7 -50 9 -19 3 -45 7 -59 10 -26 6 -92 18 -200 34 -36 6
-74 13 -86 15 -12 2 -45 7 -75 11 -30 3 -61 8 -69 10 -8 2 -40 7 -70 11 -94
11 -104 12 -155 18 -27 4 -70 9 -95 11 -25 3 -63 7 -85 10 -63 7 -145 15 -205
20 -30 2 -91 7 -135 11 -109 9 -294 20 -463 28 -34 2 -65 6 -69 9 -3 4 -13 2
-23 -3 -10 -5 -20 -7 -23 -4 -3 4 -45 8 -94 10 -103 5 -1141 13 -1145 9z"/>
<path d="M11473 9191 c-79 -20 -138 -111 -112 -178 13 -36 55 -79 101 -106 45
-24 58 -55 33 -73 -9 -7 -27 -10 -38 -8 -62 14 -87 24 -87 35 0 19 -31 8 -42
-16 -6 -14 -15 -25 -20 -25 -15 0 -8 -48 9 -66 73 -72 221 -63 294 18 22 24
27 39 27 81 -1 78 -26 116 -105 156 -45 22 -55 48 -29 70 11 9 23 8 51 -4 53
-22 61 -20 83 24 19 37 20 40 4 54 -39 33 -116 50 -169 38z"/>
<path d="M12336 9185 c-14 -8 -26 -12 -26 -9 0 3 -16 -11 -35 -32 -19 -20 -35
-43 -35 -50 0 -7 -5 -14 -11 -16 -5 -2 -11 -18 -11 -36 -1 -40 25 -69 110
-124 34 -23 62 -48 62 -57 0 -41 -77 -47 -117 -9 -21 20 -24 20 -47 4 -33 -21
-49 -52 -42 -81 12 -48 142 -86 218 -64 145 41 168 218 38 286 -68 36 -78 48
-56 72 14 16 23 18 37 10 11 -5 19 -7 19 -3 0 3 6 2 13 -3 31 -24 46 -22 66
11 12 18 21 40 21 49 0 44 -146 82 -204 52z"/>
<path d="M13144 9178 c-29 -18 -48 -58 -58 -124 -4 -20 -8 -46 -11 -58 -19
-84 -30 -206 -21 -240 7 -30 38 -39 139 -40 92 -2 117 13 117 69 0 19 -3 35
-7 36 -5 1 -28 2 -53 3 -49 2 -70 11 -70 29 0 26 20 41 57 42 56 2 77 12 89
42 15 42 7 63 -24 64 -79 3 -87 4 -90 22 -6 32 17 47 72 47 28 0 57 4 64 8 7
5 14 29 16 55 l4 46 -66 7 c-106 11 -128 10 -158 -8z"/>
<path d="M14266 9185 c-46 -16 -70 -37 -90 -80 -37 -78 -10 -140 84 -191 56
-31 67 -49 44 -75 -22 -24 -55 -24 -96 1 -44 27 -62 25 -83 -7 -30 -45 -25
-64 26 -96 35 -21 59 -29 95 -29 76 0 107 13 163 69 69 69 39 177 -65 227 -17
9 -36 22 -43 30 -12 14 -5 45 10 47 5 1 15 2 22 3 6 1 17 -2 23 -6 41 -30 104
2 104 53 0 32 -29 47 -130 63 -14 2 -43 -2 -64 -9z"/>
<path d="M9443 9182 c-37 -5 -42 -16 -58 -132 -4 -24 -8 -47 -10 -50 -1 -3 -6
-32 -10 -65 -3 -32 -8 -62 -10 -65 -10 -15 -16 -138 -7 -144 20 -12 80 -14 96
-3 9 7 19 26 22 42 3 17 7 37 9 45 2 8 4 24 4 35 2 35 16 46 67 51 58 6 70 17
79 67 l7 37 -56 0 c-43 0 -58 4 -63 16 -12 31 11 49 70 54 31 3 61 10 67 16
17 17 25 94 11 95 -33 3 -199 4 -218 1z"/>
<path d="M9819 9170 c-10 -8 -20 -31 -23 -50 -3 -19 -10 -51 -16 -70 -9 -30
-19 -104 -23 -175 -2 -45 15 -95 44 -123 38 -37 143 -69 174 -53 6 3 18 7 28
8 52 8 117 66 143 128 11 28 21 77 29 145 6 45 15 105 22 130 3 14 7 31 9 38
3 15 -44 41 -67 37 -41 -7 -59 -18 -64 -38 -6 -30 -33 -175 -39 -210 -15 -89
-38 -117 -89 -111 -50 5 -59 21 -53 88 2 34 7 70 9 81 24 108 27 163 9 177
-21 18 -72 17 -93 -2z"/>
<path d="M10373 9165 c-14 -13 -24 -37 -28 -65 -3 -25 -11 -72 -16 -105 -6
-33 -11 -67 -11 -75 0 -8 -4 -33 -8 -55 -20 -99 -20 -115 -1 -134 16 -16 32
-18 113 -16 104 3 138 10 139 28 0 7 2 20 4 29 6 30 -19 50 -63 52 -23 1 -49
9 -57 17 -24 24 4 53 52 54 57 2 83 13 84 38 3 60 -7 71 -66 69 -25 -1 -46 2
-46 8 -1 5 -2 16 -3 23 -4 25 17 37 68 37 62 0 74 7 85 48 16 55 0 64 -119 66
-92 1 -107 -1 -127 -19z"/>
<path d="M10795 9178 c-16 -10 -31 -58 -40 -133 -7 -56 -13 -96 -21 -140 -3
-16 -7 -41 -9 -55 -16 -109 -16 -118 -5 -125 7 -4 62 -8 123 -9 129 -1 145 6
149 69 l3 40 -45 3 c-93 5 -93 5 -87 75 4 34 9 76 13 92 3 17 7 44 9 60 1 17
6 49 10 72 7 39 6 43 -18 52 -29 11 -60 11 -82 -1z"/>
<path d="M11772 9174 l-32 -13 54 -108 c61 -119 72 -171 50 -243 -24 -78 -17
-89 53 -95 51 -4 65 14 74 91 11 87 41 148 129 254 66 82 84 119 58 121 -7 1
-24 3 -38 4 -56 6 -106 -28 -152 -103 l-21 -34 -18 23 c-10 13 -19 30 -19 37
0 6 -4 12 -10 12 -5 0 -10 5 -10 10 0 19 -34 49 -61 53 -14 3 -39 -1 -57 -9z"/>
<path d="M12668 9173 c-5 -7 -14 -28 -18 -48 -9 -38 -2 -47 40 -53 46 -5 49
-9 45 -59 -2 -26 -7 -59 -10 -73 -10 -46 -16 -84 -29 -177 -4 -26 20 -49 49
-47 11 1 30 2 41 3 23 1 33 18 40 64 9 64 13 82 29 157 2 8 4 31 4 51 1 47 28
80 66 82 17 2 35 6 41 10 18 11 22 76 6 89 -20 17 -290 17 -304 1z"/>
<path d="M13579 9182 c-16 -3 -23 -21 -89 -237 -10 -33 -30 -95 -44 -137 -13
-43 -21 -80 -16 -83 19 -12 67 1 89 24 14 14 41 61 61 104 l36 79 16 -39 c9
-21 20 -56 24 -78 4 -22 8 -44 9 -50 1 -5 3 -15 3 -21 3 -19 51 -35 72 -24 17
9 60 89 106 198 8 17 18 32 23 32 5 0 9 -45 9 -101 0 -112 11 -136 59 -134 65
3 70 16 59 160 -2 28 -5 101 -6 164 -2 125 -11 143 -67 147 -62 4 -85 -17
-128 -115 -22 -50 -42 -91 -46 -91 -7 0 -26 66 -34 127 -9 60 -24 75 -76 77
-24 1 -51 0 -60 -2z"/>
<path d="M6647 8033 c-266 -49 -481 -250 -548 -511 -45 -177 -13 -321 91 -415
116 -104 323 -131 520 -68 223 71 399 252 466 476 18 61 23 201 10 260 -9 36
-49 111 -79 145 -90 102 -276 148 -460 113z"/>
<path d="M1267 7754 c-1 -1 -16 -4 -32 -7 -45 -6 -70 -51 -90 -164 -10 -54
-19 -105 -20 -114 -2 -9 -6 -34 -9 -55 -4 -22 -11 -64 -16 -94 -5 -30 -12 -68
-15 -85 -2 -16 -7 -41 -10 -55 -3 -14 -8 -41 -10 -60 -6 -38 -10 -58 -18 -105
-3 -16 -13 -73 -22 -125 -22 -133 -23 -136 -39 -217 -3 -11 -8 -43 -12 -70 -6
-47 -8 -59 -20 -118 -3 -16 -7 -41 -9 -55 -3 -14 -9 -50 -15 -80 -6 -30 -13
-66 -15 -80 -4 -30 -33 -195 -40 -230 -2 -14 -7 -36 -10 -50 -2 -14 -7 -43
-10 -65 -3 -23 -7 -52 -10 -65 -7 -35 -23 -128 -30 -170 -3 -19 -8 -42 -10
-50 -2 -8 -7 -35 -10 -60 -3 -25 -7 -52 -9 -60 -1 -8 -6 -33 -11 -55 -13 -69
-15 -79 -21 -130 -4 -27 -8 -53 -10 -56 -2 -4 -6 -24 -10 -45 -3 -22 -7 -50
-10 -64 -2 -14 -7 -38 -9 -55 -3 -16 -7 -41 -10 -55 -3 -14 -8 -41 -11 -60 -3
-19 -14 -84 -25 -145 -11 -60 -22 -123 -25 -140 -2 -16 -6 -39 -8 -50 -5 -34
15 -65 43 -66 143 -5 831 0 840 6 17 10 43 71 47 110 2 17 8 53 14 80 5 28 12
66 15 85 6 39 16 95 21 125 5 25 41 228 49 275 3 19 10 62 16 95 6 33 13 71
14 85 2 14 6 41 10 60 3 19 8 50 11 68 6 46 31 102 46 104 7 0 150 2 318 3
272 2 466 9 555 20 83 11 114 16 160 27 28 6 51 11 52 10 2 -1 23 7 48 18 25
11 45 18 45 15 0 -2 30 11 68 29 131 65 255 163 327 261 17 22 32 42 35 45 14
14 50 73 82 136 79 151 130 352 132 514 3 370 -160 657 -466 825 -61 33 -205
88 -261 99 -100 20 -132 26 -179 31 -29 3 -75 8 -103 11 -27 3 -84 7 -125 10
-81 5 -1178 12 -1183 8z"/>
<path d="M8938 6845 c-2 -2 -26 -5 -55 -9 -28 -3 -57 -8 -65 -11 -7 -2 -26 -7
-41 -9 -103 -18 -269 -101 -376 -190 -54 -45 -117 -103 -154 -140 l-39 -40 6
50 c4 27 9 64 12 83 3 18 7 45 9 60 2 14 4 26 5 26 9 0 13 95 5 104 -7 7 -739
10 -768 3 -10 -3 -23 -15 -27 -28 -9 -22 -31 -145 -45 -239 -3 -23 -8 -52 -10
-65 -3 -14 -10 -54 -15 -90 -6 -36 -13 -75 -15 -88 -28 -157 -32 -180 -40
-237 -3 -22 -8 -51 -11 -65 -12 -64 -14 -76 -19 -110 -3 -20 -8 -47 -10 -60
-3 -14 -8 -41 -11 -60 -3 -19 -7 -46 -10 -60 -3 -14 -11 -61 -19 -105 -7 -44
-16 -91 -18 -105 -3 -14 -8 -41 -11 -60 -3 -19 -8 -48 -11 -65 -9 -46 -16 -88
-20 -115 -5 -28 -11 -62 -19 -100 -2 -14 -8 -43 -11 -65 -7 -43 -13 -70 -15
-70 0 0 -3 -18 -5 -40 -2 -22 -7 -51 -10 -65 -8 -35 -35 -191 -39 -228 -8 -58
-8 -58 399 -56 204 1 379 2 391 3 24 1 44 38 50 96 3 22 7 47 9 55 2 8 7 35
10 60 7 50 13 85 15 85 1 0 3 16 5 35 2 19 6 49 8 65 28 165 34 203 47 270 11
55 16 88 24 155 3 25 8 55 10 67 3 11 8 43 12 70 5 26 9 50 9 53 1 3 5 23 9
45 14 70 47 189 63 225 8 19 21 51 30 70 23 55 82 136 122 167 64 51 225 114
252 98 5 -4 9 -2 9 2 0 9 12 9 99 -1 91 -11 203 -82 235 -150 15 -31 30 -98
28 -121 -1 -5 -3 -30 -6 -55 -4 -48 -13 -110 -21 -150 -7 -36 -75 -439 -81
-480 -2 -19 -7 -46 -11 -60 -3 -14 -6 -28 -5 -32 1 -4 -3 -31 -9 -60 -6 -29
-12 -64 -14 -78 -2 -14 -6 -40 -9 -57 -3 -18 -8 -48 -11 -65 -3 -18 -15 -79
-25 -136 -11 -57 -20 -113 -20 -125 1 -51 -10 -50 405 -50 460 0 427 -10 451
138 3 17 7 41 10 55 2 14 13 77 24 140 11 63 22 126 25 140 2 13 7 42 11 65 3
22 9 58 14 80 5 22 11 63 15 90 3 28 8 57 10 65 2 8 6 33 10 55 9 63 17 109
30 168 3 12 8 42 11 67 3 25 8 48 10 51 2 4 6 27 9 50 3 24 8 58 11 74 31 167
35 390 9 515 -19 93 -79 209 -142 275 -45 46 -107 95 -121 95 -6 0 -12 4 -14
8 -4 11 -87 49 -146 67 -93 30 -108 33 -152 41 -41 6 -247 14 -252 9z"/>
<path d="M11138 6845 c-2 -2 -34 -5 -73 -9 -38 -3 -80 -8 -91 -10 -12 -2 -37
-7 -56 -10 -57 -9 -188 -53 -258 -87 -212 -102 -341 -238 -411 -434 -32 -87
-35 -248 -7 -334 59 -184 199 -297 528 -430 58 -23 114 -46 125 -51 11 -4 47
-18 80 -31 95 -35 193 -89 220 -121 52 -62 41 -156 -25 -208 -100 -79 -278
-83 -505 -9 -76 24 -71 22 -246 109 -94 46 -153 70 -165 66 -11 -3 -42 -49
-73 -108 -29 -57 -66 -125 -81 -153 -86 -155 -118 -225 -114 -242 5 -18 71
-56 184 -106 145 -64 391 -132 520 -143 88 -8 124 -14 134 -24 13 -13 249 -13
262 0 6 6 43 13 83 15 40 3 76 7 80 9 4 3 29 7 57 11 47 5 168 37 209 54 11 5
36 15 55 22 41 15 154 80 158 91 2 5 9 8 16 8 18 0 148 128 183 180 70 104
105 216 108 347 3 107 -8 178 -38 248 -35 83 -108 172 -182 223 -22 15 -42 30
-45 34 -16 21 -375 190 -430 203 -40 9 -187 67 -232 92 -99 54 -120 128 -57
198 52 56 114 78 229 78 158 0 257 -32 510 -169 50 -27 55 -22 143 154 46 92
96 189 110 216 37 67 35 97 -5 121 -83 50 -320 144 -383 151 -11 2 -40 8 -65
14 -25 7 -54 13 -65 14 -11 2 -45 7 -75 11 -50 7 -306 15 -312 10z"/>
<path d="M5337 6824 c-1 -1 -24 -4 -52 -7 -218 -23 -406 -130 -552 -312 l-32
-40 5 30 c2 17 7 41 9 55 3 14 8 43 11 65 3 22 9 56 13 75 9 40 -2 79 -21 81
-7 1 -173 3 -368 4 -390 2 -390 2 -415 -58 -7 -18 -16 -54 -19 -81 -4 -27 -9
-52 -11 -55 -1 -3 -6 -30 -10 -60 -4 -30 -9 -63 -11 -75 -5 -24 -12 -64 -19
-106 -3 -16 -8 -45 -11 -62 -3 -18 -7 -44 -9 -58 -4 -32 -13 -81 -25 -145 -5
-27 -11 -66 -14 -85 -3 -19 -10 -58 -15 -87 -6 -29 -13 -74 -17 -100 -3 -26
-8 -51 -10 -54 -2 -4 -6 -31 -10 -60 -3 -30 -8 -58 -11 -62 -2 -4 -6 -22 -9
-40 -3 -31 -9 -65 -18 -117 -3 -14 -7 -43 -11 -65 -3 -22 -7 -47 -10 -55 -2
-8 -6 -31 -9 -50 -3 -19 -8 -44 -10 -56 -2 -12 -7 -45 -11 -75 -4 -30 -8 -56
-10 -59 -2 -3 -6 -24 -9 -46 -4 -22 -8 -51 -11 -64 -8 -39 -23 -132 -29 -170
-3 -19 -12 -71 -21 -115 -15 -81 -13 -114 8 -116 60 -5 773 -2 787 3 12 4 20
21 25 50 4 24 9 50 10 59 2 9 6 34 9 55 6 36 51 293 60 339 4 22 25 149 32
192 2 15 6 39 8 53 3 14 7 43 10 65 14 99 56 287 82 363 22 66 65 155 83 173
9 9 27 31 41 49 47 60 152 120 255 146 44 11 250 13 293 3 85 -20 100 -21 120
-1 11 11 26 53 36 103 10 46 41 172 69 279 64 248 66 265 36 280 -18 10 -202
22 -212 14z"/>
<path d="M5976 6698 c-3 -18 -8 -44 -11 -58 -3 -14 -8 -41 -11 -60 -3 -19 -7
-41 -9 -48 -3 -7 -7 -31 -10 -55 -6 -45 -12 -79 -15 -87 -1 -3 -2 -8 -1 -12 0
-4 -8 -54 -19 -110 -16 -86 -41 -228 -65 -373 -3 -16 -8 -46 -11 -65 -4 -19
-8 -42 -9 -50 -11 -66 -17 -102 -25 -145 -6 -27 -12 -67 -16 -89 -3 -21 -8
-48 -10 -60 -3 -11 -7 -37 -10 -56 -2 -19 -11 -71 -19 -115 -8 -44 -17 -96
-20 -115 -3 -19 -8 -42 -10 -50 -2 -8 -6 -32 -9 -52 -3 -21 -13 -77 -22 -125
-8 -49 -17 -101 -20 -118 -9 -56 -13 -80 -19 -105 -15 -74 -16 -116 -2 -135
14 -19 26 -20 184 -18 203 3 312 3 458 -1 164 -5 196 16 210 136 3 24 10 66
15 93 16 84 28 152 35 200 2 17 8 53 14 80 5 28 12 70 16 95 3 25 8 52 10 60
2 8 7 33 10 55 3 23 7 52 10 65 7 34 23 128 29 165 9 54 57 329 61 350 3 11 6
34 9 50 9 62 42 254 56 330 5 28 12 66 14 85 3 19 8 46 11 60 3 14 8 43 10 65
3 22 7 51 10 65 17 88 26 170 19 170 -3 0 -13 -4 -23 -9 -10 -6 -31 -12 -47
-15 -16 -2 -30 -5 -31 -6 -2 -2 -6 -3 -10 -5 -107 -29 -185 -39 -308 -39 -142
0 -221 15 -345 63 -30 11 -58 21 -61 21 -4 0 -10 -15 -13 -32z"/>
</g>
</svg>
