<svg xmlns="http://www.w3.org/2000/svg" viewBox="0 0 723.1 273"><defs><style>.cls-1{fill:#fcfdfd;}.cls-2{fill:#124f95;}.cls-3{fill:#165095;}.cls-4{fill:#185295;}.cls-5{fill:#175195;}.cls-6{fill:#155094;}.cls-7{fill:#1a5396;}.cls-8{fill:#104e95;}.cls-9{fill:#114e95;}.cls-10{fill:#ecc205;}.cls-11{fill:#114f95;}.cls-12{fill:#edc204;}</style></defs><title>Middel 1</title><g id="Laag_2" data-name="Laag 2"><g id="Laag_1-2" data-name="Laag 1"><path class="cls-1" d="M87.55,110.25H69.05c-10.51,0-10.29,0-12,10.26-4.42,26-9.07,51.89-13.6,77.83-3.79,21.71-7.5,43.44-11.37,65.13-.65,3.63,0,4.84,4,4.75q18.24-.42,36.48,0c3.71.09,4.93-1.31,5.48-4.56,2.63-15.53,5.48-31,8-46.59.51-3.22,1.64-4,4.75-4,13.81-.08,27.63.61,41.44-.9,17.42-1.91,31-9.87,39.5-25.24,15.92-28.78,7.95-69.5-37.26-75.07C118.85,109.92,103.19,110.32,87.55,110.25Zm322.82,65.53c.81-5.41,1.21-9.54,2.12-13.55.54-2.35-.05-3-2.27-3q-17.49,0-35,0c-2.11,0-2.83,1-3.14,3-2.34,14.31-4.7,28.61-7.17,42.9Q359.77,235,354.4,264.81c-.41,2.27-.22,3.37,2.49,3.35,11.82-.1,23.65-.08,35.47,0,2.2,0,3.36-.67,3.71-3,1.63-10.49,3.22-21,5.09-31.42s2.62-21.41,6.83-31.5c2-4.88,4.75-9.29,9.46-11.87,7.6-4.16,15.67-5.14,23.19-.31,6.67,4.28,5.86,11.22,4.7,18-3.19,18.6-6.07,37.26-9.51,55.82-.77,4.15.54,4.29,3.78,4.25,10.66-.15,21.33-.37,32,.08,5,.21,6-1.93,6.61-6.07,1.64-10.81,3.89-21.54,5.51-32.36,2.1-14.08,6.09-27.94,5.43-42.36-.58-12.66-6.11-22.33-17.94-27.61-10.86-4.84-22.17-5.24-33.63-2.29C426.88,160.31,418.85,167.16,410.37,175.78Zm-25.2-59.91.46,1.14c13.24-4.15,26.34-8.6,38.37-15.82,17-10.19,18.84-24.45,4.87-38.32a32.61,32.61,0,0,0-3.39-2.94c-14.11-10.8-30.43-17-47.2-21.92-50.19-14.85-101.8-19.5-153.82-20.7a734,734,0,0,0-118,6.53c-31.8,4.41-63.13,10.72-92.85,23.32C9.2,49,4.58,50.74,0,54.94a27.3,27.3,0,0,0,3.83-.2c28.52-6.77,57.44-11,86.59-13.91a858.39,858.39,0,0,1,96.73-4.17c37,.48,73.83,3.19,110.32,9.5,24.39,4.22,48.47,9.67,71.23,19.78,10.68,4.74,21,10.12,28.2,19.79,6.6,8.85,5.41,17.72-3.21,24.36C391,112.18,388,114,385.17,115.87ZM235,175.05c.64-3.91,1.14-7.86,2-11.73.63-3-.11-4.19-3.41-4.13-10.32.17-20.67.35-31-.07-4.65-.19-5.84,1.71-6.5,5.74-3.38,20.59-7,41.14-10.52,61.7-2.13,12.4-4.36,24.79-6.37,37.22-.26,1.6-2,4.43,2.23,4.38,12-.14,24-.09,36,0,2.2,0,2.61-.86,2.91-2.86Q222,254,224.16,242.74c2.25-11.53,3-23.37,6.89-34.58,3.52-10.15,10.4-16.48,21.2-17.88a41.08,41.08,0,0,1,14.89.84c2.38.57,3.68.53,4.34-2.57,2-9.22,4.25-18.38,6.81-27.45,1-3.5-.33-3.94-3.2-4.16C258.54,155.68,245.06,161,235,175.05Zm64.46-13.75c-.48,2-1,3.6-1.25,5.23q-8.44,48.74-16.92,97.46c-.61,3.52.59,4.24,3.82,4.19,10.66-.16,21.35-.48,32,.11,5.25.29,6.33-2,7-6.19,4.51-26.66,9.16-53.29,13.74-79.94C339,175.58,340,169,341.14,162,326.83,166.89,313.21,167.88,299.44,161.3Zm39.42-65.53A34.8,34.8,0,0,0,304.18,126C303,136,307.26,145.3,320,147.35c14.72,2.39,30.74-6.21,36.88-19.84C364.77,109.89,356.83,95.87,338.86,95.77ZM693.13,50.53l1,.15c0,2.6.08,5.21,0,7.81-.09,2.22,0,3.72,3,3.73s3.18-1.4,3-3.67c-.3-5.3-.76-10.61-.65-15.91.06-3.1-.78-4-3.85-3.87-2.28.11-3.61.69-4.45,2.86-1,2.63-2.33,5.16-3.6,7.91-1.68-2.76-1.31-5.55-2-8.1-.47-1.62-.89-2.86-2.85-2.55-1.78.29-4.14-1.09-5,1.8-2.13,7-4.28,14-6.46,21.08,4.81.42,4.81.42,9.63-10.48,1.72,2.49,1.9,5.26,2.34,8,.21,1.25.41,2.64,2.21,2.85s2.69-.65,3.37-2.19C690.16,56.77,691.67,53.66,693.13,50.53Zm-196.92-8c-.16-1.61.92-3.73-2-3.63-1.92.07-4-.51-4.24,2.69-.21,2.75-1.58,5.43-1.7,8.17-.18,4.31-1.57,9.25,3.63,12a11,11,0,0,0,16.2-8.19c.55-3.44,1.09-6.88,1.54-10.33.2-1.58,1.81-3.76-1.32-4.28-2.55-.43-4.38.07-4.8,3.27-.54,4.08-1.49,8.11-2.36,12.14-.47,2.21-2.16,2.91-4.17,2.55-2.29-.41-2.74-2.22-2.46-4.19C495,49.23,495.66,45.81,496.21,42.51ZM617.29,62.9c3.81-.42,7.53-1.44,8.71-5.86,1.13-4.25-.44-7.38-4.58-9.27-1.13-.52-3.5-.93-2.56-2.85s2.89-1.16,4.31-.18,2.17.43,2.69-.79,2.14-2.38.76-3.51a9.88,9.88,0,0,0-7.91-2.18c-3.89.59-6.11,3.34-7.5,6.57-1.1,2.57,1.16,4.28,2.92,5.74a49,49,0,0,0,4.61,2.89c.69.45,1.44,1.17.91,2a3.59,3.59,0,0,1-1.92,1.36,3.79,3.79,0,0,1-3.66-1.13c-2.06-1.93-2.93-.62-4.17,1-1.68,2.13-.6,3.28,1.1,4.4A12,12,0,0,0,617.29,62.9ZM582,56.57c.37-5-1.62-7-4.4-8.54-1.35-.76-3.83-1.14-3.09-3.15s2.91-1.07,4.28-.33c2.51,1.36,2.68-.8,3.52-2,1.17-1.73-.18-2.25-1.36-2.93-4.26-2.43-9.61-1.41-11.93,2.3-2.48,4-1.26,7.33,3.81,10.44.43.26.84.54,1.29.76a2.14,2.14,0,0,1,1.43,2.33c-.32,1.35-1.6,1.67-2.78,1.46a10.56,10.56,0,0,1-3.18-1.19c-1-.58-1.86-2.22-2.94,0-.68,1.37-2.76,2.55-1,4.26,2.81,2.78,6.27,3.45,10.1,2.41S581.73,59,582,56.57Zm84.63-8.28a8.53,8.53,0,0,1-1.39-.29c-1.56-.71-4.63,1.52-4.7-1.55-.07-2.89,3-1.73,4.74-2,.49-.08,1,0,1.49-.08,2.23-.48,1.15-2.42,1.54-3.68.56-1.82-.84-1.66-2-1.81-10.18-1.26-10.8-.81-12.38,9.21-.26,1.63-.64,3.24-.85,4.88-1.21,9.33-1.19,9.25,8.15,9.22,2.41,0,4.18-.15,4.39-3.12.24-3.4-2.29-1.8-3.69-2.14-1.18-.27-2.83.42-2.79-1.77,0-1.91,1.34-2.21,2.72-2C665.71,53.79,666.79,51.78,666.64,48.29ZM521.46,62.13c.83,0,1.67.06,2.5,0,1.81-.15,4,.76,4.27-2.55.26-3.58-2.14-2.51-3.9-2.7-1.11-.11-2.39.2-2.36-1.66,0-2.31,1.63-2.06,3.13-2.08,1.94,0,4,.45,4.12-2.76s-2.07-2.17-3.65-2.37c-1.07-.14-2.51.34-2.4-1.59.07-1.45.92-2,2.28-2,1,0,2-.12,3-.07,2.37.1,2.55-1.41,2.73-3.24.24-2.46-1.36-2.17-2.84-2.18a45.13,45.13,0,0,1-6.48-.06c-3.18-.48-4.05,1.23-4.43,3.81-.75,5.08-1.43,10.18-2.38,15.22-.64,3.43.28,5,3.93,4.29A12.94,12.94,0,0,1,521.46,62.13ZM597.3,45.92c-4.45-8-4.71-8.17-10.11-6,2.15,5.84,7.61,10.7,5.09,18-.38,1.08-2,3.85,1.3,4.22,2.57.29,5.17.36,5-3.45-.21-5.62,3.11-9.58,6.3-13.66,1.4-1.77,3.28-3.28,3.82-5.66C602.59,36.9,600.11,41.32,597.3,45.92Zm-113.61-7c-3.76,0-7.4,0-11.05,0-1.54,0-2.36.42-2.61,2.19-.85,6.08-1.95,12.12-2.89,18.19-.21,1.31-.38,2.93,1.68,2.8,1.59-.1,3.87,1.12,4.37-1.8a31,31,0,0,0,.83-4.4c.07-2.22,1.14-2.68,3.15-2.79,4-.22,4-.36,4.3-4.92a9.6,9.6,0,0,1-1.94-.19c-1.38-.44-3.81,1.27-4-1.21s2.14-2.64,4-2.41C483.66,44.87,483.37,41.94,483.69,38.89Zm157.52,0c-2,0-4,.11-6,0-2.64-.19-2.22,2-2.68,3.36-.71,2.15.91,2.15,2.24,2.07,2.77-.17,2.42,1.67,2.16,3.31-.55,3.61-1.32,7.18-1.8,10.79-.22,1.64-1,3.87,2.19,3.77,2.08-.06,3.81.16,4-2.9.2-3.45,1.29-6.85,1.68-10.31.3-2.64.3-4.94,4-4.75,2.5.13,2.06-2.18,2.11-3.73.06-2.25-1.79-1.46-2.93-1.54C644.55,38.79,642.87,38.88,641.21,38.88ZM541.93,62.13a26.4,26.4,0,0,1,4,0c3.08.48,3.83-1.57,3.9-3.8.09-2.91-2.4-1.65-3.71-1.65-2.65,0-3.57-.88-3.07-3.55.65-3.41,1-6.87,1.51-10.31.2-1.45,1.75-3.43-1-3.92-2.35-.42-4.64-.38-5.09,2.94-.8,5.9-1.6,11.8-2.68,17.65-.41,2.22.37,2.65,2.21,2.6C539.27,62.1,540.6,62.13,541.93,62.13Z"/><path class="cls-2" d="M542.1,273c-2.66-2.09-6-1.32-8.92-1.76a106.86,106.86,0,0,1-31.6-10.38c-2.67-1.32-2.79-2.58-1.47-5,3.73-6.68,7.38-13.4,10.8-20.23,1.36-2.7,2.63-2.49,4.9-1.23,8,4.44,16.22,8.51,25.36,10.1,4.78.84,9.61,1.14,14.28-.64,3.3-1.27,5.79-3.34,6.08-7.17.27-3.66-1.88-5.91-4.76-7.56-5.37-3.07-11.33-4.77-17-7.14-4.29-1.79-8.57-3.64-12.73-5.73-22.64-11.38-18.52-35.74-4.9-47.62,8.89-7.76,19.52-11.37,31-12.5,16.75-1.66,32.8,1.07,47.84,9,2.78,1.46,3.54,2.64,1.86,5.62-3.27,5.78-6.23,11.76-9,17.78-1.28,2.74-2.29,3.27-5,1.52-7.81-5-16.19-8.46-25.72-8.27-3.4.06-6.64.68-9.4,2.77-3.94,3-4,7.73.18,10.33a44.42,44.42,0,0,0,9.1,3.95,145.63,145.63,0,0,1,20.22,8.47c10.39,5.43,18.41,12.71,18.78,25.5.41,13.77-5.76,24-17.35,31-8.26,5-17.47,7.12-27,8.12-1.18.13-2.73-.76-3.48,1Z"/><path class="cls-3" d="M543.1,0c-1,6-2,12.07-3,18.08-.37,2.1.25,4.86-3.31,5.07-2.86.17-5-.09-6.09-3.42s-2.69-6.21-4.23-9.65c-1.9,3.31-1.65,6.61-2,9.63-.38,3.35-1.92,3.64-4.47,3.41-3.64-.33-1.87-3-1.69-4.51.74-6.23,1.83-12.41,2.79-18.61h7c2.44,3.71,3,8.41,6.44,12.59.85-4.7,2.06-8.52,1.56-12.59Z"/><path class="cls-4" d="M508.1,0c6.64,4,7.08,9,.89,13.31-1.76,1.21-1.55,1.9-.73,3.38,1.1,2,2.93,3.61,3.28,5.81-6.51,3.16-7.75-2.66-10.77-6.7-1,3.67.07,8.46-5.55,7.36-1.37-.27-2.06-.48-1.75-2.15,1.28-7,2.43-14,3.63-21Zm-6.16,7.81c-.65,1.59-.48,2.83,1.43,2.85,1.76,0,3.31-.71,3.62-2.7.28-1.77-.6-2.77-2.4-3.1C501.9,4.36,502.13,6.29,501.94,7.81Z"/><path class="cls-5" d="M564.1,0c1.35,6.47,2.8,12.92,3.95,19.42.18,1,2.18,3.18-.55,3.5-1.77.2-4.21,1.58-5.47-1.54-1.08-2.67-7-3.39-8.94-1.33-3.07,3.27-3.07,3.27-8.21,2.61C548.67,15,552.38,7.51,556.1,0Zm-4.46,7.22c-2,2.12-3.09,3.88-2.88,6,.09.89,1.92,1,2.54.42C561.27,11.88,559.89,9.91,559.64,7.22Z"/><path class="cls-6" d="M425.1,0c-.22,6.68,2.59,12.84,3.33,19.35.15,1.3,1.86,3.1-.48,3.56-1.64.32-3.8,1.23-5.3-1.17-2.37-3.81-7-3.83-9.86-.28-1.53,1.95-1.53,1.95-7.34,1.28L416.1,0Zm-5.37,7.62c-1.17,1.8-3.18,3.34-2.35,5.66.32.89,2,.87,2.71.31C422.41,11.65,419.51,9.72,419.73,7.62Z"/><path class="cls-7" d="M722.29,57c-3.58,5.73-9.51,7.4-14.75,4.2-1.61-1-3.23-1.73-1.67-4.18,1.29-2,2.22-3.07,4.51-1.15,1.58,1.33,3.94,2.08,5.22-.11s-1.23-2.74-2.54-3.43c-4-2.1-6.43-4.77-4.23-9.56,1.81-4,6.07-5.45,11-3.85L723.1,40v3c-1.52.76-2.52,3.12-4.89,1.14-.83-.69-2.77-.9-3.35.75s1.06,2.26,2.18,2.73C721.28,49.41,722.91,52.56,722.29,57Z"/><path class="cls-4" d="M631.1,0c-3.58,6.71-7.29,13.35-10.67,20.16a4.69,4.69,0,0,1-5,3c-3-.05-2.83-2.29-3.31-4.07-1.72-6.36-3.36-12.74-5-19.11h7c.28,4.73,1.58,9.22,3.06,14.77L624.1,0Z"/><path class="cls-3" d="M489.1,0c.72,4.1-.89,5.93-5.13,5.43-1.33-.16-2.77.07-2.79,2,0,2.29,1.76,1.51,2.89,1.55,1.72.07,3.32-.2,3.14,2.46-.16,2.25-1.23,2.86-3.2,2.71-.66,0-1.33,0-2,0-1.48,0-2,.82-2.2,2.15-.26,1.88,1.09,1.53,2.2,1.73,1.63.3,4.28-1.24,4.2,2.39s-2.68,2.65-4.64,2.69c-9.25.18-9.23.15-7.66-9.33.76-4.58,1.46-9.17,2.19-13.75Z"/><path class="cls-6" d="M649.1,0c.52,3.39.18,6-4.37,5.36-1.47-.21-3.22-.15-3.43,1.91-.27,2.76,2,1.46,3.14,1.68,1.37.26,3-.4,2.87,2.18-.15,2.33-.93,3.24-3.31,3-1.69-.14-4.07-.7-4,2.23s2.54,1.09,3.85,1.57c1,.37,3-.71,2.48,1.78-.31,1.54.1,3.49-2.52,3.39-3.33-.12-7.33,1.05-9.8-.42-3-1.76.08-5.65-.09-8.61C633.7,9.23,636,4.79,636.1,0Z"/><path class="cls-5" d="M590.1,0c.1,3,0,5.78-4.24,5.49-1.54-.1-1.59,1.26-1.77,2.46-.58,3.91-1.6,7.78-1.82,11.7-.19,3.41-2,3.58-4.55,3.49-3.55-.11-1.72-2.49-1.62-3.89a76.72,76.72,0,0,1,1.28-9.3c.53-2.57,1.51-4.39-2.74-4.83-3.66-.38-.1-3.36-.54-5.12Z"/><path class="cls-5" d="M470.1,0c-.23,2.6.2,5.64-4,5.4-1.85-.11-1.94,1.3-2.14,2.68-.58,3.93-1.45,7.82-1.83,11.77-.32,3.42-2.44,3.44-4.92,3.27-3.32-.23-1.27-2.4-1.19-3.63.2-3,.65-5.94,1.1-8.89.39-2.6,2.27-5.39-3-5.62-2.19-.1-.7-3.22-.07-5Z"/><path class="cls-5" d="M444.1,0c-.77,4.72-1.33,9.49-2.38,14.15-.62,2.76,0,3.54,2.77,3.58,1.48,0,4.19-1.56,3.9,2.41-.25,3.39-2.18,3-4.34,3-10.42.13-10.25.18-8.4-10.41.73-4.19,2-8.37,1.45-12.73Z"/><path class="cls-5" d="M602.1,0c-.12,7.15-2,14.05-2.94,21.09-.38,3-2.6,1.84-4.2,2-2.46.22-2.1-1.58-1.89-3,1-6.7,2-13.38,3-20.07Z"/><path class="cls-8" d="M87.55,110.25c15.64.07,31.3-.33,46.88,1.58,45.21,5.57,53.18,46.29,37.26,75.07-8.5,15.37-22.08,23.33-39.5,25.24-13.81,1.51-27.63.82-41.44.9-3.11,0-4.24.82-4.75,4-2.47,15.56-5.32,31.06-8,46.59-.55,3.25-1.77,4.65-5.48,4.56q-18.22-.45-36.48,0c-4,.09-4.69-1.12-4-4.75,3.87-21.69,7.58-43.42,11.37-65.13C48,172.4,52.6,146.47,57,120.51c1.74-10.23,1.52-10.26,12-10.26ZM108.29,144c-2.33,0-4.66,0-7,0-1.44,0-2.67.12-3,1.88q-2.61,15.44-5.24,30.87c-.27,1.62-.27,3,2,3,10.29-.19,20.69.29,30.44-3.82,6.62-2.79,9.93-8.62,9.5-16-.4-6.77-4.18-11.61-11-13.78A47.66,47.66,0,0,0,108.29,144Z"/><path class="cls-9" d="M410.37,175.78c8.48-8.62,16.51-15.47,27.19-18.22,11.46-2.95,22.77-2.55,33.63,2.29,11.83,5.28,17.36,15,17.94,27.61.66,14.42-3.33,28.28-5.43,42.36-1.62,10.82-3.87,21.55-5.51,32.36-.63,4.14-1.65,6.28-6.61,6.07-10.64-.45-21.31-.23-32-.08-3.24,0-4.55-.1-3.78-4.25,3.44-18.56,6.32-37.22,9.51-55.82,1.16-6.79,2-13.73-4.7-18-7.52-4.83-15.59-3.85-23.19.31-4.71,2.58-7.42,7-9.46,11.87-4.21,10.09-4.93,20.93-6.83,31.5s-3.46,20.93-5.09,31.42c-.35,2.29-1.51,3-3.71,3-11.82-.07-23.65-.09-35.47,0-2.71,0-2.9-1.08-2.49-3.35q5.36-29.81,10.54-59.66c2.47-14.29,4.83-28.59,7.17-42.9.31-2,1-3,3.14-3q17.47,0,35,0c2.22,0,2.81.64,2.27,3C411.58,166.24,411.18,170.37,410.37,175.78Z"/><path class="cls-10" d="M385.17,115.87c2.84-1.92,5.81-3.69,8.52-5.78,8.62-6.64,9.81-15.51,3.21-24.36-7.21-9.67-17.52-15-28.2-19.79-22.76-10.11-46.84-15.56-71.23-19.78-36.49-6.31-73.31-9-110.32-9.5a858.39,858.39,0,0,0-96.73,4.17C61.27,43.73,32.35,48,3.83,54.74a27.3,27.3,0,0,1-3.83.2c4.58-4.2,9.2-5.93,13.56-7.78,29.72-12.6,61.05-18.91,92.85-23.32a734,734,0,0,1,118.05-6.53c52,1.2,103.63,5.85,153.82,20.7,16.77,5,33.09,11.12,47.2,21.92a32.61,32.61,0,0,1,3.39,2.94C442.84,76.74,441,91,424,101.19c-12,7.22-25.13,11.67-38.37,15.82Z"/><path class="cls-11" d="M235,175.05c10.08-14.08,23.56-19.37,40.11-18.11,2.87.22,4.18.66,3.2,4.16-2.56,9.07-4.85,18.23-6.81,27.45-.66,3.1-2,3.14-4.34,2.57a41.08,41.08,0,0,0-14.89-.84c-10.8,1.4-17.68,7.73-21.2,17.88-3.88,11.21-4.64,23.05-6.89,34.58Q222,254,220.27,265.29c-.3,2-.71,2.88-2.91,2.86-12-.08-24-.13-36,0-4.19,0-2.49-2.78-2.23-4.38,2-12.43,4.24-24.82,6.37-37.22,3.54-20.56,7.14-41.11,10.52-61.7.66-4,1.85-5.93,6.5-5.74,10.31.42,20.66.24,31,.07,3.3-.06,4,1.1,3.41,4.13C236.12,167.19,235.62,171.14,235,175.05Z"/><path class="cls-8" d="M299.44,161.3c13.77,6.58,27.39,5.59,41.7.68-1.13,7-2.16,13.6-3.29,20.18-4.58,26.65-9.23,53.28-13.74,79.94-.71,4.21-1.79,6.48-7,6.19-10.63-.59-21.32-.27-32-.11-3.23.05-4.43-.67-3.82-4.19q8.57-48.7,16.92-97.46C298.47,164.9,299,163.3,299.44,161.3Z"/><path class="cls-12" d="M338.86,95.77c18,.1,25.91,14.12,18,31.74-6.14,13.63-22.16,22.23-36.88,19.84-12.7-2-17-11.37-15.78-21.33A34.8,34.8,0,0,1,338.86,95.77Z"/><path class="cls-5" d="M693.13,50.53c-1.46,3.13-3,6.24-4.36,9.4-.68,1.54-1.56,2.39-3.37,2.19s-2-1.6-2.21-2.85c-.44-2.72-.62-5.49-2.34-8-4.82,10.9-4.82,10.9-9.63,10.48,2.18-7.1,4.33-14.09,6.46-21.08.88-2.89,3.24-1.51,5-1.8,2-.31,2.38.93,2.85,2.55.72,2.55.35,5.34,2,8.1,1.27-2.75,2.58-5.28,3.6-7.91.84-2.17,2.17-2.75,4.45-2.86,3.07-.13,3.91.77,3.85,3.87-.11,5.3.35,10.61.65,15.91.13,2.27-.07,3.67-3,3.67s-3.11-1.51-3-3.73c.1-2.6,0-5.21,0-7.81Z"/><path class="cls-4" d="M496.21,42.51c-.55,3.3-1.18,6.72-1.67,10.16-.28,2,.17,3.78,2.46,4.19,2,.36,3.7-.34,4.17-2.55.87-4,1.82-8.06,2.36-12.14.42-3.2,2.25-3.7,4.8-3.27,3.13.52,1.52,2.7,1.32,4.28-.45,3.45-1,6.89-1.54,10.33a11,11,0,0,1-16.2,8.19c-5.2-2.71-3.81-7.65-3.63-12,.12-2.74,1.49-5.42,1.7-8.17.24-3.2,2.32-2.62,4.24-2.69C497.13,38.78,496.05,40.9,496.21,42.51Z"/><path class="cls-7" d="M617.29,62.9A12,12,0,0,1,611,61.08c-1.7-1.12-2.78-2.27-1.1-4.4,1.24-1.59,2.11-2.9,4.17-1a3.79,3.79,0,0,0,3.66,1.13,3.59,3.59,0,0,0,1.92-1.36c.53-.85-.22-1.57-.91-2a49,49,0,0,1-4.61-2.89c-1.76-1.46-4-3.17-2.92-5.74,1.39-3.23,3.61-6,7.5-6.57a9.88,9.88,0,0,1,7.91,2.18c1.38,1.13-.27,2.39-.76,3.51s-1.33,1.74-2.69.79-3.39-1.71-4.31.18,1.43,2.33,2.56,2.85c4.14,1.89,5.71,5,4.58,9.27C624.82,61.46,621.1,62.48,617.29,62.9Z"/><path class="cls-7" d="M582,56.57c-.28,2.46-2.51,4.74-6.28,5.75s-7.29.37-10.1-2.41c-1.73-1.71.35-2.89,1-4.26,1.08-2.19,1.91-.55,2.94,0a10.56,10.56,0,0,0,3.18,1.19c1.18.21,2.46-.11,2.78-1.46a2.14,2.14,0,0,0-1.43-2.33c-.45-.22-.86-.5-1.29-.76-5.07-3.11-6.29-6.46-3.81-10.44,2.32-3.71,7.67-4.73,11.93-2.3,1.18.68,2.53,1.2,1.36,2.93-.84,1.24-1,3.4-3.52,2-1.37-.74-3.56-1.64-4.28.33s1.74,2.39,3.09,3.15C580.39,49.59,582.38,51.59,582,56.57Z"/><path class="cls-6" d="M666.64,48.29c.15,3.49-.93,5.5-4.78,4.86-1.38-.22-2.69.08-2.72,2,0,2.19,1.61,1.5,2.79,1.77,1.4.34,3.93-1.26,3.69,2.14-.21,3-2,3.11-4.39,3.12-9.34,0-9.36.11-8.15-9.22.21-1.64.59-3.25.85-4.88,1.58-10,2.2-10.47,12.38-9.21,1.17.15,2.57,0,2,1.81-.39,1.26.69,3.2-1.54,3.68-.48.1-1,0-1.49.08-1.79.29-4.81-.87-4.74,2,.07,3.07,3.14.84,4.7,1.55A8.53,8.53,0,0,0,666.64,48.29Z"/><path class="cls-6" d="M521.46,62.13a12.94,12.94,0,0,0-2.49,0c-3.65.67-4.57-.86-3.93-4.29,1-5,1.63-10.14,2.38-15.22.38-2.58,1.25-4.29,4.43-3.81a45.13,45.13,0,0,0,6.48.06c1.48,0,3.08-.28,2.84,2.18-.18,1.83-.36,3.34-2.73,3.24-1,0-2,.06-3,.07-1.36,0-2.21.59-2.28,2-.11,1.93,1.33,1.45,2.4,1.59,1.58.2,3.78-.92,3.65,2.37S527,53.1,525.1,53.13c-1.5,0-3.08-.23-3.13,2.08,0,1.86,1.25,1.55,2.36,1.66,1.76.19,4.16-.88,3.9,2.7-.24,3.31-2.46,2.4-4.27,2.55C523.13,62.19,522.29,62.13,521.46,62.13Z"/><path class="cls-7" d="M597.3,45.92c2.81-4.6,5.29-9,11.42-6.58-.54,2.38-2.42,3.89-3.82,5.66-3.19,4.08-6.51,8-6.3,13.66.15,3.81-2.45,3.74-5,3.45-3.34-.37-1.68-3.14-1.3-4.22,2.52-7.29-2.94-12.15-5.09-18C592.59,37.75,592.85,37.9,597.3,45.92Z"/><path class="cls-6" d="M483.69,38.89c-.32,3,0,6-4.21,5.45-1.85-.23-4.22-.1-4,2.41s2.66.77,4,1.21a9.6,9.6,0,0,0,1.94.19c-.33,4.56-.32,4.7-4.3,4.92-2,.11-3.08.57-3.15,2.79a31,31,0,0,1-.83,4.4c-.5,2.92-2.78,1.7-4.37,1.8-2.06.13-1.89-1.49-1.68-2.8.94-6.07,2-12.11,2.89-18.19.25-1.77,1.07-2.2,2.61-2.19C476.29,38.91,479.93,38.89,483.69,38.89Z"/><path class="cls-6" d="M641.21,38.88c1.66,0,3.34-.09,5,0,1.14.08,3-.71,2.93,1.54,0,1.55.39,3.86-2.11,3.73-3.74-.19-3.74,2.11-4,4.75-.39,3.46-1.48,6.86-1.68,10.31-.17,3.06-1.9,2.84-4,2.9-3.2.1-2.41-2.13-2.19-3.77.48-3.61,1.25-7.18,1.8-10.79.26-1.64.61-3.48-2.16-3.31-1.33.08-2.95.08-2.24-2.07.46-1.4,0-3.55,2.68-3.36C637.2,39,639.21,38.88,641.21,38.88Z"/><path class="cls-4" d="M541.93,62.13c-1.33,0-2.66,0-4,0-1.84,0-2.62-.38-2.21-2.6,1.08-5.85,1.88-11.75,2.68-17.65.45-3.32,2.74-3.36,5.09-2.94,2.79.49,1.24,2.47,1,3.92-.47,3.44-.86,6.9-1.51,10.31-.5,2.67.42,3.55,3.07,3.55,1.31,0,3.8-1.26,3.71,1.65-.07,2.23-.82,4.28-3.9,3.8A26.4,26.4,0,0,0,541.93,62.13Z"/></g></g></svg>